<svg width="37" height="37" viewBox="0 0 37 37" fill="none" xmlns="http://www.w3.org/2000/svg">
<path d="M19.8007 35.8004C20.9569 35.6703 21.4628 35.5908 22.1854 35.4318C28.6894 34.0082 33.7552 29.0725 35.3378 22.6047C35.7136 21.0799 35.8003 20.2777 35.8003 18.5C35.8003 16.7223 35.7136 15.9201 35.3378 14.3953C33.7913 8.0793 28.9206 3.2086 22.6046 1.66212C21.0798 1.28633 20.2776 1.19962 18.4999 1.19962C16.5632 1.19962 15.5081 1.33692 13.7665 1.8211C9.37998 3.04239 5.52822 6.11368 3.29522 10.175C2.2835 12.0178 1.66924 13.9039 1.28623 16.2959C1.14893 17.192 1.17061 19.9453 1.32959 20.9426C2.11729 25.9939 4.79834 30.2215 8.94639 32.9604C11.0855 34.3768 13.3618 35.2439 16.0212 35.6631C16.6933 35.7715 19.2587 35.8654 19.8007 35.8004ZM20.9497 26.4781C20.5739 26.3697 20.4222 26.2252 17.2136 23.0311C13.5136 19.3383 13.5136 19.3383 13.5136 18.5C13.5136 17.6617 13.5136 17.6617 17.2136 13.969C20.4222 10.7748 20.5739 10.6303 20.9497 10.5219C21.47 10.3701 21.8097 10.3773 22.2794 10.5508C22.6913 10.7025 23.096 11.0711 23.3128 11.4902C23.5079 11.8516 23.5007 12.7982 23.3056 13.1668C23.2261 13.3113 22.1854 14.4387 20.9858 15.66C19.7935 16.8813 18.7745 17.958 18.7312 18.0447C18.6228 18.2471 18.6228 18.7529 18.7312 18.9553C18.7745 19.042 19.7935 20.1115 20.9858 21.34C22.5468 22.9371 23.2044 23.6598 23.32 23.9055C23.7753 24.8594 23.2839 26.059 22.2866 26.4492C21.8458 26.6227 21.4628 26.6299 20.9497 26.4781Z" fill="white"/>
</svg>
