<svg width="34" height="30" viewBox="0 0 34 30" fill="none" xmlns="http://www.w3.org/2000/svg">
<path d="M10.8825 0.0940914C9.41547 0.520458 8.31703 1.94409 7.87621 3.96753C7.67387 4.92143 7.70277 6.46069 7.94848 7.37847C8.35316 8.9105 9.28539 10.2041 10.3694 10.7388C10.8969 11.0062 10.9475 11.0134 11.6846 11.0134C12.4289 11.0134 12.4651 11.0062 13.0143 10.7316C14.7053 9.90054 15.7532 7.68921 15.6375 5.19604C15.5219 2.82573 14.5752 1.04077 13.0215 0.303661C12.5518 0.0796375 12.3856 0.0435047 11.8436 0.0218258C11.4606 0.0073719 11.0848 0.0362787 10.8825 0.0940914Z" fill="url(#paint0_linear_2_47)"/>
<path d="M21.0069 0.0940914C20.4866 0.231396 20.0168 0.498778 19.5616 0.910692C17.9211 2.39936 17.3502 5.59351 18.2825 8.08667C18.7666 9.373 19.4965 10.2546 20.4793 10.7388C21.0213 11.0062 21.0647 11.0134 21.8018 11.0134C22.5389 11.0134 22.5895 11.0062 23.117 10.7388C24.2227 10.1968 25.1838 8.83101 25.5741 7.25561C25.7836 6.40288 25.7981 4.87808 25.603 3.96753C25.0899 1.53218 23.594 -0.021534 21.7657 0.000145912C21.5272 0.000145912 21.1875 0.0435047 21.0069 0.0940914Z" fill="url(#paint1_linear_2_47)"/>
<path d="M2.03718 7.63143C1.0905 8.02889 0.469013 8.80213 0.165498 9.99451C-0.369268 12.0541 0.440107 15.0314 1.89987 16.4045C3.69929 18.081 5.99011 17.3295 6.66218 14.8435C6.93679 13.8101 6.8573 12.1408 6.47429 10.9773C5.98288 9.4742 4.96394 8.18787 3.87995 7.70369C3.4319 7.50135 2.43464 7.46522 2.03718 7.63143Z" fill="url(#paint2_linear_2_47)"/>
<path d="M29.7727 7.64594C29.2524 7.84105 28.8333 8.14457 28.284 8.73715C27.1856 9.9223 26.5786 11.7578 26.6653 13.6512C26.7303 15.017 27.1061 15.9493 27.8866 16.643C28.3924 17.1055 28.9127 17.2862 29.6499 17.25C30.1485 17.2284 30.3075 17.1922 30.7772 16.961C31.3987 16.6502 32.0708 15.9926 32.4899 15.2844C32.7934 14.7786 33.1909 13.7307 33.3499 13.037C33.5161 12.3071 33.5088 10.6594 33.3354 10.0452C33.0391 8.95394 32.4104 8.08676 31.6661 7.72543C31.1747 7.47972 30.3075 7.45082 29.7727 7.64594Z" fill="url(#paint3_linear_2_47)"/>
<path d="M15.8905 13.5789C14.7921 13.7307 13.7298 14.1426 12.8481 14.7568C12.3495 15.1037 6.32254 20.7766 5.88172 21.3113C5.48426 21.7883 5.13016 22.5688 4.99285 23.2625C4.57371 25.3438 5.71551 27.6779 7.60887 28.6102C8.93855 29.2606 10.3116 29.2316 13.0938 28.4656C15.1245 27.9092 16.0929 27.7863 17.6104 27.8947C18.5716 27.9598 19.063 28.0537 21.0069 28.5379C22.7052 28.9643 23.2471 29.0582 23.9915 29.051C27.0555 29.0221 29.3391 25.6834 28.3346 22.6988C28.0889 21.969 27.8577 21.5859 27.2723 20.9717C26.3401 19.9889 21.0864 15.0748 20.6311 14.7568C19.3159 13.8318 17.4225 13.3621 15.8905 13.5789Z" fill="url(#paint4_linear_2_47)"/>
<defs>
<linearGradient id="paint0_linear_2_47" x1="15.9469" y1="11.5608" x2="3.93742" y2="4.37487" gradientUnits="userSpaceOnUse">
<stop offset="0.40625" stop-color="#888AC9"/>
<stop offset="0.942708" stop-color="#E69898" stop-opacity="0"/>
</linearGradient>
<linearGradient id="paint1_linear_2_47" x1="26.0414" y1="11.5617" x2="14.0203" y2="4.37911" gradientUnits="userSpaceOnUse">
<stop offset="0.40625" stop-color="#888AC9"/>
<stop offset="0.942708" stop-color="#E69898" stop-opacity="0"/>
</linearGradient>
<linearGradient id="paint2_linear_2_47" x1="7.08458" y1="17.7904" x2="-3.4437" y2="11.673" gradientUnits="userSpaceOnUse">
<stop offset="0.40625" stop-color="#888AC9"/>
<stop offset="0.942708" stop-color="#E69898" stop-opacity="0"/>
</linearGradient>
<linearGradient id="paint3_linear_2_47" x1="33.7293" y1="17.7393" x2="23.2322" y2="11.6254" gradientUnits="userSpaceOnUse">
<stop offset="0.40625" stop-color="#888AC9"/>
<stop offset="0.942708" stop-color="#E69898" stop-opacity="0"/>
</linearGradient>
<linearGradient id="paint4_linear_2_47" x1="29.4749" y1="29.8449" x2="10.7366" y2="6.09622" gradientUnits="userSpaceOnUse">
<stop offset="0.40625" stop-color="#888AC9"/>
<stop offset="0.942708" stop-color="#E69898" stop-opacity="0"/>
</linearGradient>
</defs>
</svg>
