<svg width="340" height="115" viewBox="0 0 340 115" fill="none" xmlns="http://www.w3.org/2000/svg">
<g clip-path="url(#clip0_93_24)">
<path d="M18.4941 0.132824C18.3148 0.166027 17.9563 0.239075 17.6973 0.292198C17.4449 0.345322 17 0.418369 16.7078 0.458214C16.0305 0.551182 15.4992 0.810165 14.875 1.34806C13.9852 2.11837 6.87305 9.31017 6.64727 9.6754C5.80391 11.0168 5.87695 12.8231 6.81328 14.0516L7.03906 14.3438L6.63399 14.8285C5.24609 16.4688 3.6457 18.8328 2.39063 21.0774C1.44102 22.784 0.0664062 25.7125 0.0664062 26.0313C0.0664062 26.2371 0.358594 26.4961 0.584375 26.4961C0.697266 26.4961 0.843359 26.443 0.916406 26.3766C0.996094 26.3168 1.2418 25.8453 1.46094 25.334C2.93516 21.9606 5.11992 18.3547 7.31797 15.6586L7.84258 15.0145L8.24102 15.2137C8.46016 15.3266 8.91172 15.4727 9.25039 15.5457C11.1496 15.9375 13.0887 15.3531 14.4168 13.9918C15.4992 12.8895 17.0797 10.1535 17.7305 8.27423C17.9098 7.76954 17.923 7.66993 17.85 7.5172C17.7238 7.25821 17.4516 7.1254 17.2191 7.21173C17.0066 7.28477 16.9203 7.44415 16.5285 8.4336C15.891 10.0805 14.4766 12.418 13.5801 13.3211C12.5375 14.3637 10.9438 14.8219 9.46289 14.5098C8.83203 14.377 8.33399 14.118 7.92891 13.7195C7.30469 13.0887 7.00586 12.1723 7.15195 11.3156C7.31133 10.3859 7.21836 10.4988 11.6809 6.02306C15.2336 2.46368 15.8246 1.89259 16.1699 1.72657C16.9934 1.3215 17.85 1.41446 18.607 1.97892C19.0852 2.33751 19.3309 2.37071 19.5699 2.09845C19.7758 1.85275 19.7625 1.64688 19.5168 1.36134L19.3109 1.12892H19.7758C21.3629 1.12892 23.0164 1.81954 24.1387 2.95509C24.3246 3.13439 24.8492 3.76525 25.3008 4.34298C25.9316 5.14649 26.1773 5.41876 26.3301 5.4586C26.443 5.49181 27.0738 5.49845 27.7445 5.47189L28.9531 5.4254V5.75079C28.9598 6.44142 29.1855 6.91954 29.6172 7.16525C29.75 7.23829 30.3941 7.46407 31.0449 7.66993C31.7023 7.87579 32.3863 8.08829 32.5656 8.14806L32.8844 8.24767L32.8578 8.7922C32.8113 9.58243 32.5059 10.0805 31.9082 10.3328C31.802 10.3793 29.6504 10.7313 27.1336 11.1231C22.8039 11.7938 22.5383 11.827 22.1332 11.7539C21.2566 11.6012 20.4797 11.216 19.6961 10.5387C19.3973 10.2797 19.2512 10.2 19.0852 10.2C18.6934 10.2 18.4609 10.5387 18.6137 10.8973C18.8129 11.382 20.5527 12.4844 21.4492 12.6902C21.6484 12.7367 21.8211 12.7832 21.8344 12.7832C21.841 12.7899 21.6352 13.1285 21.3695 13.527C21.1039 13.932 20.8184 14.377 20.7387 14.5164L20.5926 14.7754L20.5859 14.3703C20.5859 13.8723 20.4066 13.5668 20.0414 13.4274C19.6031 13.2547 19.4238 13.3477 18.348 14.2574C15.1539 16.9734 13.1484 19.882 11.9598 23.5344C11.1828 25.9117 10.9238 27.9969 11.05 30.8457C11.0898 31.8551 11.0832 32.4195 11.0301 32.891C10.957 33.4621 10.9637 33.5684 11.0566 33.7078C11.2426 33.9934 11.7273 34 11.9133 33.7145C12.0926 33.4422 12.1723 32.5125 12.1191 31.2774C12.0195 28.9199 12.0793 27.8043 12.3848 26.1242C13.0223 22.6844 14.7688 19.2977 17.2324 16.741C17.8035 16.1434 19.4637 14.6625 19.5102 14.709C19.5234 14.7156 19.4969 15.4129 19.457 16.243C19.3641 18.2152 19.3309 18.3481 18.7066 18.9656C18.2551 19.4106 18.202 19.4504 17.7637 19.5434C17.2457 19.6629 17.0664 19.8156 17.0664 20.1344C17.0664 20.3867 17.332 20.6524 17.5777 20.6524C17.8633 20.6524 18.441 20.4797 18.8395 20.2805C19.2645 20.0613 19.902 19.4106 20.0813 19.0055C20.2008 18.7465 20.2273 18.7266 20.4133 18.7598C20.5262 18.7731 21.1703 18.8262 21.8477 18.866C23.3285 18.9524 23.8465 19.052 24.391 19.3375C25.3738 19.8621 25.9582 20.7586 26.1309 22.0203C26.3301 23.4547 26.4164 23.6606 26.9145 23.893C27.127 23.9926 27.4059 24.0391 28.0566 24.0723C28.9797 24.1254 29.1656 24.1652 29.4113 24.391C29.6039 24.5703 29.8098 25.0086 29.8164 25.2344C29.8164 25.427 29.1523 27.7113 29.0195 27.957C28.8137 28.3488 28.5281 28.6277 28.1363 28.8137C27.7445 29.0063 27.5984 29.0328 25.4668 29.252C24.225 29.3848 23.0563 29.5309 22.877 29.584C22.1465 29.7899 21.6484 30.4738 21.6484 31.284C21.6484 31.7024 21.675 31.782 22.1531 32.7449C22.4254 33.3027 22.7043 33.8008 22.7641 33.8473C23.0629 34.0731 23.5742 33.8008 23.5742 33.4223C23.5742 33.3227 23.3816 32.8379 23.1426 32.3465C22.6313 31.3039 22.6047 31.1047 22.9301 30.7859L23.1426 30.5734L24.9023 30.3875C28.4086 30.0223 28.5879 29.9758 29.3449 29.252C29.8629 28.7539 30.009 28.4551 30.4606 26.9941C30.7727 25.9449 30.8391 25.6461 30.8457 25.2344C30.8457 24.3844 30.4406 23.7203 29.6703 23.3086C29.2852 23.1027 29.1922 23.0828 28.309 23.0231C27.4258 22.9633 27.3527 22.9434 27.3262 22.8172C27.3129 22.7375 27.2531 22.3457 27.1934 21.934C27.0141 20.6457 26.7086 19.9883 25.9051 19.1848C24.9223 18.202 24.2715 17.9695 22.0535 17.8168C20.898 17.7305 20.4996 17.684 20.473 17.6176C20.4199 17.4848 21.2234 15.8113 21.8344 14.7688C22.1133 14.2906 22.7441 13.3875 23.0629 13.0156L23.2488 12.7965L26.848 12.2453C31.6293 11.5082 32.0145 11.4418 32.3531 11.2957C32.7914 11.1098 33.2762 10.6848 33.5219 10.2731C33.907 9.62892 33.9469 9.36993 33.9203 7.34454C33.9004 5.63126 33.8938 5.53165 33.7543 5.26603C33.5551 4.89415 33.1766 4.60196 32.7449 4.46915C32.4328 4.38282 31.9945 4.36954 29.5508 4.38946L26.7086 4.41603L25.9184 3.41993C24.7031 1.89923 24.059 1.34806 22.8039 0.750401C21.8344 0.292198 21.084 0.126183 19.8555 0.0996208C19.291 0.086338 18.6801 0.0996208 18.4941 0.132824ZM32.7117 5.66446C32.8578 5.83048 32.8711 5.91017 32.8711 6.48126C32.8711 6.82657 32.8512 7.10548 32.8313 7.10548C32.652 7.10548 30.1617 6.2754 30.102 6.18907C30.009 6.07618 29.9824 5.56485 30.0621 5.48517C30.0887 5.4586 30.6598 5.44532 31.3305 5.4586L32.5523 5.47853L32.7117 5.66446Z" fill="white"/>
<path d="M21.8145 4.44258C21.5156 4.57539 21.3496 4.84102 21.3496 5.18633C21.3496 5.46523 21.3828 5.53828 21.5688 5.72422C21.7547 5.91016 21.8277 5.94336 22.1133 5.94336C22.3988 5.94336 22.4719 5.91016 22.6578 5.72422C22.8438 5.53828 22.877 5.46523 22.877 5.17969C22.877 4.90078 22.8438 4.82109 22.6711 4.6418C22.452 4.42266 22.0602 4.33633 21.8145 4.44258Z" fill="white"/>
<path d="M22.4785 21.7746C22.1797 21.9074 22.0137 22.173 22.0137 22.5184C22.0137 22.7973 22.0469 22.8703 22.2328 23.0563C22.4188 23.2422 22.4918 23.2754 22.7773 23.2754C23.0629 23.2754 23.1359 23.2422 23.3219 23.0563C23.5078 22.8703 23.541 22.7973 23.541 22.5117C23.541 22.2328 23.5078 22.1531 23.3352 21.9738C23.116 21.7547 22.7242 21.6684 22.4785 21.7746Z" fill="white"/>
</g>
<line x1="42.0008" y1="13.5" x2="323.001" y2="13.9707" stroke="white"/>
<line x1="6" y1="114.5" x2="331.002" y2="114.5" stroke="white"/>
<line x1="322.646" y1="20.771" x2="338.771" y2="4.64644" stroke="white"/>
<line x1="322.646" y1="24.771" x2="338.771" y2="8.64644" stroke="white"/>
<line x1="322.646" y1="28.771" x2="338.771" y2="12.6464" stroke="white"/>
<line x1="330.5" y1="112.006" x2="330.5" y2="27" stroke="#FFF4F4"/>
<line x1="330.5" y1="112" x2="330.5" y2="115" stroke="white"/>
<line x1="6" y1="114.003" x2="6" y2="33.9969" stroke="#FFFEFE"/>
<defs>
<clipPath id="clip0_93_24">
<rect width="34" height="34" fill="white"/>
</clipPath>
</defs>
</svg>
